<svg width="140" height="45" viewBox="0 0 140 45" fill="none" xmlns="http://www.w3.org/2000/svg">
<path d="M22.8655 40.6259C22.8655 40.4273 22.8968 40.2392 22.97 40.0615C23.0431 39.8943 23.1476 39.7375 23.294 39.6016C23.4298 39.4658 23.5866 39.3613 23.7643 39.2881C23.9419 39.2149 24.1405 39.1836 24.3495 39.1836C24.4645 39.1836 24.5899 39.2045 24.7467 39.2359C24.893 39.2777 25.0498 39.3404 25.2065 39.4449C25.3633 39.5389 25.5096 39.6852 25.6246 39.8838C25.75 40.0824 25.8231 40.3228 25.844 40.6259H24.8303C24.8094 40.4586 24.7467 40.3332 24.6526 40.2496C24.5586 40.166 24.454 40.1242 24.3286 40.1242C24.1928 40.1242 24.0673 40.1765 23.9628 40.2601C23.8583 40.3541 23.8061 40.4691 23.8061 40.6049C23.8061 40.6363 23.8061 40.6781 23.8165 40.7304C23.8688 40.8871 24.0151 41.0334 24.2659 41.1589C24.5167 41.2843 24.778 41.4097 25.0393 41.5351C25.3006 41.6605 25.5201 41.8277 25.6873 42.0263C25.8649 42.2353 25.9486 42.5175 25.9486 42.8624C25.9486 43.1341 25.8963 43.364 25.8022 43.5626C25.6977 43.7612 25.5619 43.918 25.4051 44.0434C25.2379 44.1688 25.0602 44.2628 24.8616 44.3256C24.6735 44.3778 24.4854 44.4092 24.2973 44.4092C23.9942 44.4092 23.7225 44.3465 23.4716 44.221C23.2313 44.0956 23.0431 43.918 22.8968 43.688C22.7401 43.4477 22.6669 43.1759 22.646 42.8624H23.6598C23.6702 43.0819 23.7434 43.2386 23.8688 43.3431C23.9942 43.4581 24.1405 43.5104 24.3182 43.5104C24.4854 43.5104 24.6213 43.4686 24.7571 43.3849C24.8825 43.3118 24.9661 43.2073 24.987 43.0714C24.9975 43.0087 25.008 42.946 25.008 42.8833C25.008 42.6429 24.9348 42.4861 24.7885 42.3921C24.6317 42.298 24.3809 42.1831 24.0046 42.0368C23.6389 41.8904 23.3567 41.7128 23.1686 41.5142C22.97 41.3156 22.8759 41.023 22.8655 40.6259Z" fill="#06113C"/>
<path d="M27.2968 41.1057C27.7462 40.6667 28.2478 40.4473 28.7704 40.4473C28.9481 40.4473 29.1048 40.4786 29.2616 40.5204C29.4079 40.5622 29.5542 40.6145 29.6901 40.6876C29.8155 40.7608 29.9409 40.8444 30.0663 40.9594C30.1917 41.0639 30.2962 41.1893 30.3799 41.3147C30.6307 41.6596 30.7561 42.0254 30.7561 42.433C30.7561 42.6629 30.7143 42.9033 30.6307 43.1228C30.5575 43.3527 30.4321 43.5721 30.2753 43.7707C30.1813 43.8961 30.0559 44.0006 29.9096 44.0947C29.7632 44.1783 29.596 44.2515 29.4184 44.2933C29.2302 44.3351 29.0421 44.3664 28.854 44.3664C28.6554 44.3664 28.4568 44.3351 28.2583 44.2933C28.0702 44.241 27.882 44.1679 27.7148 44.0738C27.5476 43.9693 27.4013 43.8543 27.2863 43.7185C26.9519 43.3004 26.7847 42.8615 26.7847 42.3912C26.7847 41.9313 26.9519 41.5133 27.2968 41.1057ZM27.9865 41.6909C27.7984 41.9104 27.7044 42.1612 27.7044 42.4539C27.7044 42.7256 27.7984 42.9764 27.9865 43.1855C28.206 43.4467 28.4673 43.5722 28.7704 43.5722C28.9376 43.5722 29.0944 43.5303 29.2511 43.4572C29.3975 43.384 29.5124 43.29 29.5856 43.1855C29.7423 42.966 29.8259 42.7256 29.8259 42.4434C29.8259 42.3076 29.805 42.1822 29.7632 42.0672C29.7214 41.9418 29.6587 41.8373 29.5856 41.7432C29.3556 41.4924 29.0735 41.3565 28.739 41.3565C28.4359 41.3565 28.1851 41.4715 27.9865 41.6909Z" fill="#06113C"/>
<path d="M33.2749 39.2871H34.2364L35.3547 41.5864L36.4729 39.2871H37.4345L35.8354 42.4329V44.3036H34.8739V42.4329L33.2749 39.2871Z" fill="#06113C"/>
<path d="M37.9149 41.1057C38.3748 40.6667 38.866 40.4473 39.399 40.4473C39.5662 40.4473 39.7334 40.4786 39.8797 40.5204C40.0365 40.5622 40.1828 40.6145 40.3082 40.6876C40.4441 40.7608 40.5695 40.8444 40.6949 40.9594C40.8099 41.0639 40.9144 41.1893 41.0085 41.3147C41.2593 41.6596 41.3847 42.0254 41.3847 42.433C41.3847 42.6629 41.3429 42.9033 41.2593 43.1228C41.1757 43.3527 41.0607 43.5721 40.904 43.7707C40.8099 43.8961 40.6845 44.0006 40.5382 44.0947C40.3919 44.1783 40.2246 44.2515 40.0365 44.2933C39.8588 44.3351 39.6707 44.3664 39.4826 44.3664C39.284 44.3664 39.0855 44.3351 38.8869 44.2933C38.6883 44.241 38.5106 44.1679 38.3434 44.0738C38.1658 43.9693 38.0299 43.8543 37.9149 43.7185C37.5805 43.3004 37.4028 42.8615 37.4028 42.3912C37.4028 41.9313 37.5805 41.5133 37.9149 41.1057ZM38.6152 41.6909C38.427 41.9104 38.333 42.1612 38.333 42.4539C38.333 42.7256 38.427 42.9764 38.6152 43.1855C38.8242 43.4467 39.0855 43.5722 39.399 43.5722C39.5662 43.5722 39.723 43.5303 39.8693 43.4572C40.0261 43.384 40.141 43.29 40.2142 43.1855C40.371 42.966 40.4546 42.7256 40.4546 42.4434C40.4546 42.3076 40.4337 42.1822 40.3919 42.0672C40.35 41.9418 40.2873 41.8373 40.2142 41.7432C39.9843 41.4924 39.7021 41.3565 39.3676 41.3565C39.0541 41.3565 38.8137 41.4715 38.6152 41.6909Z" fill="#06113C"/>
<path d="M42.3042 42.5895V40.5098H43.2134V42.5895C43.2134 42.8926 43.2866 43.1225 43.4434 43.3002C43.6001 43.4779 43.7778 43.5719 43.9868 43.5719C44.1122 43.5719 44.2272 43.5301 44.3422 43.457C44.4467 43.3943 44.5303 43.2793 44.6034 43.133C44.6662 42.9867 44.6975 42.7986 44.6975 42.5895V40.5098H45.659V44.3035H44.8543V43.9273C44.6975 44.105 44.5198 44.2408 44.3317 44.3349C44.1436 44.4289 43.945 44.4707 43.7569 44.4707C43.5688 44.4707 43.3807 44.4289 43.203 44.3453C43.0358 44.2617 42.879 44.1259 42.7431 43.9691C42.6073 43.8019 42.4923 43.6033 42.4192 43.3629C42.346 43.133 42.3042 42.8717 42.3042 42.5895Z" fill="#06113C"/>
<path d="M48.335 40.1441V39.2871H51.1045V40.1441H50.2057V44.3036H49.2442V40.1441H48.335Z" fill="#06113C"/>
<path d="M55.2742 41.6909V44.3036H54.365V42.1194C54.365 41.9312 54.3336 41.7745 54.2605 41.6386C54.1978 41.5132 54.1037 41.4087 53.9992 41.346C53.8842 41.2833 53.7588 41.2519 53.6334 41.2519C53.4976 41.2519 53.3617 41.2937 53.2467 41.3564C53.1213 41.4191 53.0168 41.5237 52.9436 41.6595C52.86 41.7849 52.8182 41.9417 52.8182 42.1194V44.3036H51.9194V39.2871H52.8182V40.8339C52.975 40.6876 53.1422 40.583 53.3303 40.5099C53.508 40.4367 53.6857 40.4054 53.8738 40.4054C54.1142 40.4054 54.3441 40.4576 54.5636 40.5726C54.7726 40.6771 54.9503 40.8339 55.0757 41.0324C55.2115 41.2206 55.2742 41.44 55.2742 41.6909Z" fill="#06113C"/>
<path d="M56.4551 39.2871H57.3643V40.0396H56.4551V39.2871ZM56.4551 40.5099H57.3643V44.3036H56.4551V40.5099Z" fill="#06113C"/>
<path d="M58.4927 40.572H59.2974V40.896C59.3915 40.7497 59.5378 40.6452 59.7155 40.572C59.9036 40.4988 60.1126 40.457 60.3321 40.457C60.5934 40.457 60.8337 40.5093 61.0637 40.6138C61.2936 40.7079 61.4817 40.8646 61.628 41.0736C61.7743 41.2827 61.8475 41.544 61.8475 41.847V44.303H60.9382V42.0665C60.9382 41.9097 60.9069 41.7843 60.8233 41.6694C60.7501 41.5544 60.6456 41.4708 60.5202 41.4185C60.3843 41.3558 60.2589 41.3245 60.123 41.3245C59.9245 41.3245 59.7573 41.3872 59.6109 41.5126C59.4751 41.638 59.4019 41.8261 59.4019 42.0665V44.303H58.4927V40.572Z" fill="#06113C"/>
<path d="M63.8861 39.2871V42.1716L65.0566 40.5099H66.1749L64.7953 42.3284L66.3944 44.3036H65.1716L63.8861 42.5374V44.3036H62.9873V39.2871H63.8861Z" fill="#06113C"/>
<path d="M68.9551 39.2871H69.9166L71.0349 41.5864L72.1531 39.2871H73.1146L71.5156 42.4329V44.3036H70.5541V42.4329L68.9551 39.2871Z" fill="#06113C"/>
<path d="M73.6059 41.1057C74.0553 40.6667 74.5569 40.4473 75.0899 40.4473C75.2571 40.4473 75.4139 40.4786 75.5707 40.5204C75.7274 40.5622 75.8633 40.6145 75.9992 40.6876C76.1246 40.7608 76.25 40.8444 76.3754 40.9594C76.5008 41.0639 76.6053 41.1893 76.6994 41.3147C76.9398 41.6596 77.0652 42.0254 77.0652 42.433C77.0652 42.6629 77.0338 42.9033 76.9502 43.1228C76.8666 43.3527 76.7412 43.5721 76.5949 43.7707C76.4904 43.8961 76.3754 44.0006 76.2186 44.0947C76.0723 44.1783 75.9051 44.2515 75.7274 44.2933C75.5393 44.3351 75.3512 44.3664 75.1631 44.3664C74.9645 44.3664 74.7659 44.3351 74.5674 44.2933C74.3792 44.241 74.1911 44.1679 74.0239 44.0738C73.8567 43.9693 73.7104 43.8543 73.6059 43.7185C73.261 43.3004 73.0938 42.8615 73.0938 42.3912C73.0938 41.9313 73.261 41.5133 73.6059 41.1057ZM74.2956 41.6909C74.118 41.9104 74.0239 42.1612 74.0239 42.4539C74.0239 42.7256 74.118 42.9764 74.2956 43.1855C74.5151 43.4467 74.7764 43.5722 75.0795 43.5722C75.2467 43.5722 75.4035 43.5303 75.5602 43.4572C75.7065 43.384 75.8215 43.29 75.8947 43.1855C76.0514 42.966 76.135 42.7256 76.135 42.4434C76.135 42.3076 76.1141 42.1822 76.0723 42.0672C76.0305 41.9418 75.9783 41.8373 75.8947 41.7432C75.6647 41.4924 75.3826 41.3565 75.0481 41.3565C74.745 41.3565 74.4942 41.4715 74.2956 41.6909Z" fill="#06113C"/>
<path d="M77.9844 42.5895V40.5098H78.8936V42.5895C78.8936 42.8926 78.9772 43.1225 79.134 43.3002C79.2908 43.4779 79.4684 43.5719 79.6775 43.5719C79.8029 43.5719 79.9178 43.5301 80.0223 43.457C80.1269 43.3943 80.2209 43.2793 80.2836 43.133C80.3463 42.9867 80.3881 42.7986 80.3881 42.5895V40.5098H81.3496V44.3035H80.5449V43.9273C80.3777 44.105 80.2 44.2408 80.0119 44.3349C79.8238 44.4289 79.6357 44.4707 79.4371 44.4707C79.249 44.4707 79.0713 44.4289 78.8936 44.3453C78.716 44.2617 78.5592 44.1259 78.4233 43.9691C78.2875 43.8019 78.1829 43.6033 78.0993 43.3629C78.0262 43.133 77.9844 42.8717 77.9844 42.5895Z" fill="#06113C"/>
<path d="M84.1719 41.6904C84.1928 41.4814 84.2555 41.2305 84.3704 40.9484C84.4854 40.6662 84.6526 40.3944 84.8721 40.1332C85.0811 39.8719 85.3424 39.6629 85.6559 39.4852C85.9695 39.318 86.3248 39.2344 86.7115 39.2344H86.7847C87.0877 39.2344 87.3908 39.2971 87.7148 39.4225C88.0388 39.5584 88.3314 39.736 88.5927 39.9764C88.854 40.2063 89.0316 40.4781 89.1362 40.7811H88.0701C87.8716 40.5721 87.6626 40.4154 87.4535 40.3108C87.2341 40.2063 87.0146 40.1541 86.7847 40.1541C86.5025 40.1541 86.2308 40.2377 85.9799 40.3944C85.7186 40.5512 85.5201 40.7602 85.3633 41.0111C85.217 41.2619 85.1334 41.5232 85.1334 41.7949C85.1334 42.1084 85.2274 42.4011 85.4051 42.6623C85.5828 42.9236 85.8232 43.1326 86.0949 43.279C86.3771 43.4357 86.6592 43.5089 86.9414 43.5089C87.1609 43.5089 87.349 43.4671 87.5267 43.3835C87.6939 43.2894 87.8402 43.1535 87.9656 42.9759H89.0839C88.9585 43.2999 88.7599 43.582 88.4986 43.8015C88.2269 44.021 87.9343 44.1778 87.6208 44.2718C87.3072 44.3659 87.025 44.4181 86.7638 44.4181C86.7324 44.4181 86.6906 44.4181 86.6279 44.4077C86.2935 44.3868 85.9799 44.3032 85.6768 44.1673C85.3738 44.0314 85.1125 43.8433 84.893 43.6238C84.6735 43.3939 84.4959 43.1117 84.3704 42.7878C84.245 42.4533 84.1719 42.0875 84.1719 41.6904Z" fill="#06113C"/>
<path d="M89.9409 42.3801C89.9723 42.0457 90.035 41.7531 90.1395 41.4918C90.2544 41.241 90.3903 41.0424 90.5575 40.8856C90.7247 40.7289 90.9129 40.6139 91.1114 40.5303C91.31 40.4571 91.519 40.4258 91.7385 40.4258C92.0207 40.4258 92.282 40.4885 92.5328 40.6034C92.7836 40.7289 92.9717 40.8961 93.0867 41.1051V40.5094H93.9437V44.3554H93.0867V43.8747C92.9613 44.0523 92.7836 44.1986 92.5432 44.3031C92.3029 44.4077 92.0625 44.4599 91.8117 44.4599C91.5399 44.4599 91.2787 44.4077 91.0487 44.3031C90.8188 44.1882 90.6307 44.0523 90.4635 43.8642C90.2963 43.6761 90.1708 43.4566 90.0768 43.1953C89.9932 42.9445 89.9409 42.6728 89.9409 42.3801ZM91.9684 43.5507C92.376 43.5298 92.6687 43.4253 92.8359 43.2371C93.0031 43.0386 93.0867 42.7773 93.0867 42.4324C93.0867 42.2129 93.0344 42.0248 92.9404 41.8471C92.8359 41.6799 92.6896 41.5441 92.5223 41.45C92.3551 41.3664 92.167 41.3141 91.9684 41.3141C91.7699 41.3141 91.5922 41.3664 91.4145 41.45C91.2473 41.5441 91.1114 41.6799 91.0069 41.8471C90.9024 42.0248 90.8502 42.2129 90.8502 42.4324C90.8502 42.6728 90.9024 42.8713 91.0174 43.0386C91.1219 43.2058 91.2578 43.3416 91.4354 43.4253C91.6026 43.5089 91.7803 43.5507 91.9684 43.5507Z" fill="#06113C"/>
<path d="M95.02 40.572H95.8248V40.896C95.9188 40.7497 96.0651 40.6452 96.2533 40.572C96.4414 40.4988 96.6399 40.457 96.8699 40.457C97.1207 40.457 97.3611 40.5093 97.591 40.6138C97.8209 40.7079 98.009 40.8646 98.1658 41.0736C98.3121 41.2827 98.3853 41.544 98.3853 41.847V44.303H97.476V42.0665C97.476 41.9097 97.4342 41.7843 97.3506 41.6694C97.2775 41.5544 97.1729 41.4708 97.0475 41.4185C96.9221 41.3558 96.7863 41.3245 96.6504 41.3245C96.4518 41.3245 96.2846 41.3872 96.1383 41.5126C96.0024 41.638 95.9293 41.8261 95.9293 42.0665V44.303H95.02V40.572Z" fill="#06113C"/>
<path d="M101.208 41.6904C101.228 41.4814 101.291 41.2305 101.406 40.9484C101.521 40.6662 101.688 40.3944 101.897 40.1332C102.117 39.8719 102.378 39.6629 102.692 39.4852C103.005 39.318 103.35 39.2344 103.747 39.2344H103.82C104.113 39.2344 104.426 39.2971 104.75 39.4225C105.074 39.5584 105.367 39.736 105.628 39.9764C105.879 40.2063 106.067 40.4781 106.172 40.7811H105.106C104.907 40.5721 104.698 40.4154 104.479 40.3108C104.27 40.2063 104.05 40.1541 103.82 40.1541C103.538 40.1541 103.266 40.2377 103.005 40.3944C102.754 40.5512 102.545 40.7602 102.399 41.0111C102.242 41.2619 102.169 41.5232 102.169 41.7949C102.169 42.1084 102.263 42.4011 102.441 42.6623C102.618 42.9236 102.848 43.1326 103.131 43.279C103.413 43.4357 103.695 43.5089 103.977 43.5089C104.186 43.5089 104.385 43.4671 104.562 43.3835C104.73 43.2894 104.876 43.1535 104.991 42.9759H106.12C105.994 43.2999 105.796 43.582 105.534 43.8015C105.263 44.021 104.97 44.1778 104.656 44.2718C104.343 44.3659 104.061 44.4181 103.799 44.4181C103.768 44.4181 103.716 44.4181 103.664 44.4077C103.329 44.3868 103.005 44.3032 102.712 44.1673C102.409 44.0314 102.148 43.8433 101.929 43.6238C101.709 43.3939 101.532 43.1117 101.406 42.7878C101.27 42.4533 101.208 42.0875 101.208 41.6904Z" fill="#FF8C32"/>
<path d="M107.509 41.1057C107.969 40.6667 108.46 40.4473 108.993 40.4473C109.16 40.4473 109.328 40.4786 109.474 40.5204C109.631 40.5622 109.777 40.6145 109.902 40.6876C110.038 40.7608 110.164 40.8444 110.279 40.9594C110.404 41.0639 110.509 41.1893 110.603 41.3147C110.854 41.6596 110.979 42.0254 110.979 42.433C110.979 42.6629 110.937 42.9033 110.854 43.1228C110.77 43.3527 110.655 43.5721 110.498 43.7707C110.404 43.8961 110.279 44.0006 110.132 44.0947C109.986 44.1783 109.819 44.2515 109.631 44.2933C109.453 44.3351 109.265 44.3664 109.077 44.3664C108.878 44.3664 108.68 44.3351 108.481 44.2933C108.283 44.241 108.105 44.1679 107.938 44.0738C107.76 43.9693 107.624 43.8543 107.509 43.7185C107.175 43.3004 106.997 42.8615 106.997 42.3912C106.997 41.9313 107.175 41.5133 107.509 41.1057ZM108.209 41.6909C108.021 41.9104 107.927 42.1612 107.927 42.4539C107.927 42.7256 108.021 42.9764 108.209 43.1855C108.418 43.4467 108.68 43.5722 108.993 43.5722C109.16 43.5722 109.317 43.5303 109.464 43.4572C109.62 43.384 109.725 43.29 109.798 43.1855C109.965 42.966 110.038 42.7256 110.038 42.4434C110.038 42.3076 110.017 42.1822 109.986 42.0672C109.944 41.9418 109.882 41.8373 109.798 41.7432C109.568 41.4924 109.286 41.3565 108.951 41.3565C108.648 41.3565 108.398 41.4715 108.209 41.6909Z" fill="#FF8C32"/>
<path d="M114.772 40.8443V39.2871H115.681V44.3037H114.825V43.7706C114.699 43.9797 114.521 44.1469 114.271 44.2514C114.03 44.3559 113.8 44.4082 113.602 44.4082C113.278 44.4082 112.975 44.3246 112.672 44.1469C112.379 43.9692 112.139 43.7288 111.95 43.4258C111.773 43.1227 111.679 42.7987 111.679 42.4329C111.679 42.0358 111.773 41.6804 111.961 41.3669C112.159 41.0533 112.4 40.8234 112.703 40.6562C113.006 40.489 113.32 40.4158 113.654 40.4158C113.915 40.4158 114.124 40.4472 114.271 40.5099C114.417 40.5726 114.584 40.6771 114.772 40.8443ZM112.64 42.3806C112.64 42.621 112.692 42.8196 112.797 42.9868C112.901 43.1645 113.037 43.2899 113.194 43.3735C113.361 43.4571 113.539 43.4989 113.717 43.4989C114.009 43.4989 114.25 43.4049 114.469 43.2167C114.678 43.0182 114.804 42.7464 114.825 42.3806C114.825 42.3597 114.825 42.3284 114.825 42.297C114.825 42.088 114.772 41.9208 114.678 41.764C114.574 41.6177 114.438 41.5027 114.271 41.4191C114.103 41.346 113.936 41.3042 113.748 41.3042C113.466 41.3042 113.215 41.3982 112.996 41.5864C112.787 41.764 112.661 42.0358 112.64 42.3806Z" fill="#FF8C32"/>
<path d="M116.644 42.38C116.644 42.0979 116.717 41.8157 116.842 41.5126C116.978 41.22 117.187 40.9691 117.48 40.7601C117.783 40.5615 118.159 40.457 118.619 40.457C118.995 40.457 119.329 40.5406 119.633 40.6974C119.925 40.8542 120.155 41.0841 120.322 41.3976C120.479 41.7007 120.563 42.0665 120.563 42.495C120.563 42.61 120.563 42.7354 120.542 42.8608H117.657C117.741 43.0698 117.877 43.2266 118.065 43.3415C118.253 43.467 118.462 43.5192 118.682 43.5192C119.006 43.5192 119.267 43.4043 119.476 43.1848H120.437C120.364 43.4043 120.249 43.6133 120.092 43.8014C119.925 43.9895 119.727 44.1463 119.497 44.2612C119.256 44.3762 119.006 44.4389 118.734 44.4598C118.713 44.4598 118.702 44.4598 118.682 44.4598C118.671 44.4598 118.661 44.4598 118.65 44.4598C118.378 44.4598 118.117 44.4076 117.877 44.303C117.626 44.1881 117.417 44.0418 117.229 43.8536C117.041 43.676 116.894 43.4565 116.79 43.2266C116.696 42.9967 116.644 42.7667 116.644 42.5368C116.644 42.4636 116.644 42.4114 116.644 42.38ZM118.682 41.3663C118.473 41.3663 118.295 41.3976 118.138 41.4708C117.981 41.5335 117.856 41.6276 117.762 41.7216C117.668 41.8261 117.595 41.9411 117.553 42.0665H119.633C119.58 41.8784 119.476 41.7216 119.319 41.5753C119.173 41.4394 118.985 41.3663 118.765 41.3663C118.723 41.3663 118.692 41.3663 118.682 41.3663Z" fill="#FF8C32"/>
<path fill-rule="evenodd" clip-rule="evenodd" d="M15.5392 7.79802L15.6019 1.52734L0.5 12.3547V22.9626L15.6123 35.4517L15.5914 27.9582L2.77835 17.319L15.5392 7.79802Z" fill="#06113C"/>
<path fill-rule="evenodd" clip-rule="evenodd" d="M124.46 7.79802L124.398 1.52734L139.5 12.3547V22.9626L124.387 35.4517L124.408 27.9582L137.221 17.319L124.46 7.79802Z" fill="#06113C"/>
<path d="M35.4063 8.56163V13.4423H29.9195V7.76734C29.9195 7.27614 29.8463 6.93125 29.7105 6.72223C29.5642 6.52366 29.3342 6.4087 29.0102 6.4087C28.4772 6.4087 28.216 6.85809 28.216 7.76734V12.7839C28.216 13.3064 28.2891 13.714 28.425 13.9753C28.5713 14.2366 28.9057 14.5292 29.4492 14.8428L32.8354 16.7867C33.5147 17.1734 34.0477 17.6019 34.4344 18.0826C34.8106 18.5634 35.0719 19.0859 35.2078 19.6398C35.3436 20.1937 35.4063 20.8731 35.4063 21.6778V28.4188C35.4063 29.9133 35.3436 31.0629 35.2182 31.8363C35.0824 32.6201 34.8106 33.2367 34.3821 33.6861C33.9536 34.1355 33.3266 34.4386 32.5114 34.5954C31.6962 34.7626 30.5152 34.8462 29.0102 34.8462C27.5471 34.8462 26.4184 34.7522 25.6136 34.5745C24.8089 34.4073 24.1923 34.1042 23.7533 33.6652C23.3144 33.2367 23.0217 32.5992 22.8754 31.784C22.7187 30.9584 22.6455 29.8401 22.6455 28.4188V21.2807H28.216V29.1504C28.216 29.6311 28.2891 29.976 28.425 30.2059C28.5713 30.4358 28.8012 30.5508 29.1252 30.5508C29.6582 30.5508 29.9195 30.0805 29.9195 29.1504V22.3153C29.9195 21.7719 29.8463 21.3747 29.7105 21.1134C29.5642 20.8626 29.2297 20.5909 28.6967 20.2982L25.1538 18.2185C24.1818 17.6437 23.5234 16.9643 23.1681 16.17C22.8232 15.3862 22.6455 14.3829 22.6455 13.1706V8.56163C22.6455 7.14027 22.7291 6.01155 22.8963 5.16501C23.0531 4.32892 23.3457 3.6914 23.7847 3.25245C24.2132 2.82396 24.8298 2.52088 25.645 2.36411C26.4497 2.19689 27.5889 2.11328 29.052 2.11328C31.0064 2.11328 32.4069 2.2805 33.2743 2.60448C34.1417 2.92847 34.7166 3.52418 34.9883 4.40208C35.2705 5.26952 35.4063 6.65952 35.4063 8.56163Z" fill="#06113C"/>
<path d="M41.1021 2.32227H46.4635L47.9057 14.7591L49.2226 2.32227H54.4272L50.7798 21.5523V34.6058H45.0526V21.5523L41.1021 2.32227Z" fill="#06113C"/>
<path d="M59.2974 2.32227H70.2501V6.60723H67.5329V34.6058H62.0147V6.60723H59.2974V2.32227Z" fill="#06113C"/>
<path d="M75.0679 2.32227H80.4293L81.8716 14.7591L83.1884 2.32227H88.3931L84.7352 21.5523V34.6058H79.008V21.5523L75.0679 2.32227Z" fill="#06113C"/>
<path d="M91.7163 17.2047C92.5942 17.1838 93.3049 16.9434 93.8588 16.494C94.4023 16.055 94.7785 15.4384 94.9562 14.665C95.1338 13.8812 95.2279 12.5539 95.2383 10.6727C95.2488 8.78106 95.2801 7.53738 95.3324 6.94166C95.4369 5.99061 95.6146 5.22768 95.8968 4.65287C96.1685 4.07806 96.5134 3.61821 96.9105 3.27332C97.3181 2.92843 97.8407 2.66715 98.4677 2.48948C98.8962 2.37452 99.5965 2.32227 100.568 2.32227H101.509V4.9873H100.986C99.8264 4.9873 99.053 5.20678 98.6768 5.62482C98.3005 6.04287 98.1019 6.99392 98.1019 8.45708C98.1019 11.4147 98.0392 13.2855 97.9138 14.0589C97.7153 15.2712 97.3599 16.2014 96.8687 16.8598C96.3671 17.5078 95.5937 18.093 94.5277 18.5947C95.7818 19.1172 96.691 19.9115 97.2659 20.9775C97.8198 22.0331 98.1019 23.7784 98.1019 26.2031C98.1019 28.4083 98.1124 29.7147 98.1438 30.1327C98.2378 30.8956 98.4573 31.4287 98.8231 31.7317C99.1889 32.0453 99.91 32.1916 100.976 32.1916H101.509V34.8671H100.558C99.4501 34.8671 98.6454 34.773 98.1542 34.5953C97.4331 34.3341 96.8374 33.916 96.3566 33.3308C95.8863 32.7559 95.5832 32.0139 95.4369 31.1256C95.2906 30.2372 95.2174 28.7741 95.207 26.7465C95.1965 24.719 95.1025 23.3081 94.9144 22.5347C94.7367 21.7509 94.3813 21.1447 93.8379 20.6849C93.284 20.2355 92.5838 20.0056 91.7163 19.9742V17.2047Z" fill="#06113C"/>
<path d="M120.238 17.2047V19.9742C119.36 20.0056 118.649 20.2355 118.106 20.6849C117.552 21.1447 117.186 21.7509 117.008 22.5243C116.82 23.2977 116.726 24.625 116.716 26.5062C116.705 28.3978 116.684 29.6311 116.632 30.2268C116.527 31.1883 116.339 31.9512 116.057 32.526C115.785 33.0904 115.441 33.5502 115.033 33.8951C114.625 34.2296 114.103 34.5013 113.465 34.679C113.037 34.8044 112.347 34.8671 111.365 34.8671H110.414V32.1916H110.947C112.117 32.1916 112.89 31.9826 113.277 31.5541C113.664 31.136 113.852 30.185 113.852 28.7114C113.852 25.8896 113.894 24.1024 113.988 23.3499C114.166 22.0958 114.531 21.1029 115.075 20.3505C115.629 19.598 116.392 19.0232 117.395 18.5947C116.089 17.9781 115.158 17.1524 114.625 16.1387C114.082 15.1144 113.821 13.39 113.821 10.9653C113.821 8.76016 113.81 7.44332 113.779 7.01482C113.706 6.26234 113.486 5.73978 113.11 5.4367C112.744 5.14407 112.023 4.9873 110.947 4.9873H110.414V2.32227H111.365C112.472 2.32227 113.277 2.40587 113.768 2.59399C114.49 2.83437 115.085 3.25242 115.566 3.84813C116.036 4.42294 116.339 5.16497 116.486 6.06377C116.632 6.95212 116.705 8.41527 116.716 10.4532C116.726 12.4808 116.82 13.8812 117.008 14.6546C117.186 15.428 117.552 16.0446 118.106 16.494C118.649 16.9434 119.36 17.1838 120.238 17.2047Z" fill="#06113C"/>
<path d="M91.7163 17.2047C92.5942 17.1838 93.3049 16.9434 93.8588 16.494C94.4023 16.055 94.7785 15.4384 94.9562 14.665C95.1338 13.8812 95.2279 12.5539 95.2383 10.6727C95.2488 8.78106 95.2801 7.53738 95.3324 6.94166C95.4369 5.99061 95.6146 5.22768 95.8968 4.65287C96.1685 4.07806 96.5134 3.61821 96.9105 3.27332C97.3181 2.92843 97.8407 2.66715 98.4677 2.48948C98.8962 2.37452 99.5965 2.32227 100.568 2.32227H101.509V4.9873H100.986C99.8264 4.9873 99.053 5.20678 98.6768 5.62482C98.3005 6.04287 98.1019 6.99392 98.1019 8.45708C98.1019 11.4147 98.0392 13.2855 97.9138 14.0589C97.7153 15.2712 97.3599 16.2014 96.8687 16.8598C96.3671 17.5078 95.5937 18.093 94.5277 18.5947C95.7818 19.1172 96.691 19.9115 97.2659 20.9775C97.8198 22.0331 98.1019 23.7784 98.1019 26.2031C98.1019 28.4083 98.1124 29.7147 98.1438 30.1327C98.2378 30.8956 98.4573 31.4287 98.8231 31.7317C99.1889 32.0453 99.91 32.1916 100.976 32.1916H101.509V34.8671H100.558C99.4501 34.8671 98.6454 34.773 98.1542 34.5953C97.4331 34.3341 96.8374 33.916 96.3566 33.3308C95.8863 32.7559 95.5832 32.0139 95.4369 31.1256C95.2906 30.2372 95.2174 28.7741 95.207 26.7465C95.1965 24.719 95.1025 23.3081 94.9144 22.5347C94.7367 21.7509 94.3813 21.1447 93.8379 20.6849C93.284 20.2355 92.5838 20.0056 91.7163 19.9742V17.2047Z" fill="#FF8C32" stroke="#FF8C32" stroke-width="3.11669" stroke-miterlimit="2.61313"/>
<path d="M120.238 17.2047V19.9742C119.36 20.0056 118.649 20.2355 118.106 20.6849C117.552 21.1447 117.186 21.7509 117.008 22.5243C116.82 23.2977 116.726 24.625 116.716 26.5062C116.705 28.3978 116.684 29.6311 116.632 30.2268C116.527 31.1883 116.339 31.9512 116.057 32.526C115.785 33.0904 115.441 33.5502 115.033 33.8951C114.625 34.2296 114.103 34.5013 113.465 34.679C113.037 34.8044 112.347 34.8671 111.365 34.8671H110.414V32.1916H110.947C112.117 32.1916 112.89 31.9826 113.277 31.5541C113.664 31.136 113.852 30.185 113.852 28.7114C113.852 25.8896 113.894 24.1024 113.988 23.3499C114.166 22.0958 114.531 21.1029 115.075 20.3505C115.629 19.598 116.392 19.0232 117.395 18.5947C116.089 17.9781 115.158 17.1524 114.625 16.1387C114.082 15.1144 113.821 13.39 113.821 10.9653C113.821 8.76016 113.81 7.44332 113.779 7.01482C113.706 6.26234 113.486 5.73978 113.11 5.4367C112.744 5.14407 112.023 4.9873 110.947 4.9873H110.414V2.32227H111.365C112.472 2.32227 113.277 2.40587 113.768 2.59399C114.49 2.83437 115.085 3.25242 115.566 3.84813C116.036 4.42294 116.339 5.16497 116.486 6.06377C116.632 6.95212 116.705 8.41527 116.716 10.4532C116.726 12.4808 116.82 13.8812 117.008 14.6546C117.186 15.428 117.552 16.0446 118.106 16.494C118.649 16.9434 119.36 17.1838 120.238 17.2047Z" fill="#FF8C32" stroke="#FF8C32" stroke-width="3.11669" stroke-miterlimit="2.61313"/>
</svg>
